<svg version="1.2" xmlns="http://www.w3.org/2000/svg" viewBox="0 0 1730 900" width="1730" height="900">
	<title>KA21</title>
	<style>
		.s0 { fill: none;stroke: #ffffff;stroke-miterlimit:100;stroke-width: 30.7 } 
		.s1 { fill: #ffffff } 
	</style>
	<g id="形状 3 拷贝">
		<g id="形状 3 拷贝">
			<g id="&lt;Group&gt;">
				<path id="&lt;Path&gt;" class="s0" d="m880.2 94.3h-137.5l-253.7 235.8h-130.5l-139.2 126.6v151.4h104v-93.3h68.7l360.1 358.9h54.1l1.5-98.1-315.2-317.1z"/>
			</g>
		</g>
	</g>
	<g id="形状 2 图像">
		<path id="&lt;Compound Path&gt;" fill-rule="evenodd" class="s1" d="m761.4 505.8c-3.8-3.3-7.5-6.7-11.8-10.4 64.4-60.3 127.8-119.6 191.9-179.5 0 63.9 0 126.9 0 189.9q-90.1 0-180.1 0zm156-134.7c-39.6 37.1-78.5 73.5-117.9 110.4 39.8 0 78.7 0 117.9 0 0-36.6 0-73 0-110.4z"/>
	</g>
	<g id="形状 1 图像">
		<path id="&lt;Path&gt;" class="s1" d="m725.3 620.1c-0.9-1.2-1.8-2.5-2.9-3.6q-67-66.5-134-132.9c-1.1-1.1-2.5-1.9-4-3 1.5-1.5 2.2-2.3 3-3.1q149.7-139.2 299.4-278.4c39.9-37.2 79.9-74.3 119.9-111.5 2.1-2 4.2-2.9 7.2-2.9 133.4 0.1 403.1 0.1 404.9 0.1 0.1 1.6 0.2 98.4 0.3 145.4 0 2.5-0.7 4.3-2.6 6.1-72.3 67.4-144.7 134.8-217 202.2-31.7 29.6-63.5 59.2-95.2 88.8-1 0.9-2 2.5-2 3.8q-0.15 31.65 0 63.3c0 0.4 0.1 0.8 0.3 1.3 96.6 0 193.3 0 290.3 0 0-29.2 0-58.4 0-88-63.9 0-127.6 0-192.3 0 1.3-1.4 2-2.3 2.8-3 6.6-6.2 13.2-12.6 20-18.7 1.5-1.3 3.8-2.3 5.8-2.3 61.5-0.1 123-0.1 184.5-0.1 1 0 2 0.1 3.6 0.2 0 45.5 0 90.9 0 136.3q-169.7 0-339.4 0c0.1-32.2 0.2-64.4 0.1-96.5 0-3.4 1-5.8 3.5-8.1q155.4-144.7 310.7-289.7c1.4-1.3 2.7-3.6 2.7-5.5 0.2-35.9 0-109.9-0.1-111.4-1.5 0-249.3 0-371.8 0.1-2.1 0-4.7 0.8-6.2 2.2-131.3 122-262.6 244.1-393.9 366.1-1 1-2 2-3.3 3.1 1 1.1 1.8 2 2.7 2.9 36.9 36.6 73.9 73.2 110.7 109.9 2 1.9 3.9 2.8 6.8 2.8 91.9 0 183.7 0 275.6 0 1.4 0 2.8 0 4.6 0 0-2.1 0-3.7 0-5.4 0-115.2 0.1-230.5 0-345.8 0-3.1 0.8-5.2 3.4-7.2 10.2-8 20.2-16.3 30.4-24.4 1.3-1.1 3.2-1.8 4.9-1.8 80-0.1 160-0.1 240-0.1 0.8 0 1.5 0.1 3.3 0.2-74.6 69.2-148.7 137.8-223.6 207.2-0.1-2.4-0.3-3.7-0.3-5-0.1-7.7 0.1-15.4-0.1-23.1-0.1-3.1 0.9-5.3 3.2-7.4 31.4-29 62.7-58 94.1-87.1q31.1-28.8 62.2-57.6c0.8-0.8 1.7-1.5 2.5-2.2q-0.2-0.4-0.4-0.9-1.9 0-3.8 0c-55.7 0-111.5 0.1-167.3 0-2.9 0-5.2 0.7-7.4 2.6-4.5 3.9-9.1 7.8-13.9 11.3-2.5 1.8-3.1 3.8-3.1 6.6 0.1 59.3 0.1 118.5 0.1 177.8q0 90.6 0 181.3c0 1.7 0.1 3.4 0.1 5.1q-159.5 0-319 0z"/>
	</g>
	<g id="矩形 1">
		<g id="矩形 1">
			<g id="&lt;Group&gt;">
				<path id="&lt;Path&gt;" fill-rule="evenodd" class="s0" d="m1558.6 96.1v512h-98.7v-512z"/>
			</g>
		</g>
	</g>
	<g id="&lt;Path&gt;">
		<g id="&lt;Path&gt;">
			<g id="&lt;Group&gt;">
			</g>
		</g>
	</g>
	<g id="&lt;Compound Path&gt;">
		<g id="&lt;Compound Path&gt;">
			<g id="&lt;Group&gt;">
			</g>
		</g>
	</g>
	<g id="&lt;Path&gt;">
		<g id="&lt;Path&gt; 00000052823957047405977820000008586408507246960812 ">
			<g id="&lt;Group&gt;">
			</g>
		</g>
	</g>
	<g id="&lt;Path&gt;">
		<g id="&lt;Path&gt; 00000076598310501784709370000010532996985442236325 ">
			<g id="&lt;Group&gt;">
			</g>
		</g>
	</g>
	<g id="&lt;Path&gt;">
		<g id="&lt;Path&gt; 00000120551584318890553530000015894248774122755240 ">
			<g id="&lt;Group&gt;">
			</g>
		</g>
	</g>
	<g id="形状 1">
		<g id="形状 1 00000101804557732593675790000002825484070239213745 ">
			<g id="&lt;Group&gt;">
				<path id="&lt;Path&gt;" class="s1" d="m442.6 33.7l-9.4-7.7c0 0-23 22.9-30.9 31.3-5.5 6.1-14 1.2-14 1.2 0 0-33.3-23.5-77.4-24.5-31.1-0.6-69.6 12.3-96.5 42.3-65 72.6-21.7 153.7-21.7 153.7 0 0 23.9-28.6 28.3-32.8 4.3-4.2 2.6-9.2 2.6-9.2 0 0-14.7-45.5 19.2-79.5 45.1-38.5 92.6-17.4 105.4-11.5 12.8 5.9 3.5 21 3.5 21 0 0-19.7 22.8-29.8 33.8-10.1 11-1.8 17.2-1.8 17.2l9.2 6.7 113.8-129.9c5.1-7.2-0.5-12.1-0.5-12.1z"/>
			</g>
		</g>
	</g>
	<g id="形状 1 拷贝 2">
		<g id="形状 1 拷贝 2">
			<g id="&lt;Group&gt;">
				<path id="&lt;Path&gt;" class="s1" d="m430.9 104.7c0 0-23.9 28.5-28.3 32.8-4.4 4.2-2.6 9.2-2.6 9.2 0 0 20.3 47.8-21.9 86.1-45.1 38.6-97.3 12.1-110.1 6.2-12.8-5.9-3.4-21-3.4-21 0 0 19.6-22.7 29.7-33.8 10.1-11 1.8-17.2 1.8-17.2l-9.2-6.7-113.7 129.9c-5.2 7.2 0.5 12.1 0.5 12.1l9.3 7.7c0 0 23-22.9 30.9-31.3 5.6-6 14-1.2 14-1.2 0 0 33.4 25.1 77.4 26 31.1 0.7 74.3-8.5 101.2-38.5 73.6-77.2 24.4-160.3 24.4-160.3z"/>
			</g>
		</g>
	</g>
</svg>