<svg width="160" height="160" viewBox="0 0 160 160" fill="none" xmlns="http://www.w3.org/2000/svg"><path fill-rule="evenodd" clip-rule="evenodd" d="M79.0664 30.0078C79.5754 32.4873 80.4267 34.9661 81.6514 37.3945L93.3604 60.6133C91.2761 61.7831 88.8726 62.4521 86.3125 62.4521H79.1016C77.8395 62.4521 76.6149 62.2899 75.4482 61.9854C74.7648 71.3183 66.9761 78.6777 57.4688 78.6777C56.5463 78.6777 55.64 78.6082 54.7549 78.4746V93.0986H71.8818C86.3188 93.0988 98.0225 104.803 98.0225 119.24H100.727C107.951 119.24 114.074 123.962 116.175 130.488C125.564 121.178 131.38 108.269 131.38 94.002C131.38 82.5212 127.613 71.9204 121.25 63.3662L127.456 51.0605C137.737 62.4156 144 77.4767 144 94.001C144 129.347 115.346 158.001 80 158.001C44.6538 158.001 16 129.347 16 94.001C16 58.9665 44.1506 30.5071 79.0664 30.0078ZM30.417 80.4805C29.2449 84.7886 28.6191 89.3225 28.6191 94.002C28.6192 120.494 48.6688 142.303 74.4219 145.083L73.6846 144.479V130.057C66.715 130.057 61.0647 124.407 61.0645 117.438V112.028L30.417 81.3809V80.4805Z" fill="#000000"></path><path d="M113.065 17.0039C113.737 16.3327 114.825 16.3327 115.496 17.0039C116.167 17.6752 116.167 18.7633 115.496 19.4346L110.431 24.5L115.496 29.5654C116.167 30.2367 116.167 31.3258 115.496 31.9971C114.825 32.6677 113.737 32.6679 113.065 31.9971L107.999 26.9307L102.935 31.9971C102.263 32.668 101.174 32.6681 100.503 31.9971C99.8318 31.3259 99.8319 30.2367 100.503 29.5654L105.568 24.5L100.503 19.4346C99.832 18.7634 99.8322 17.6751 100.503 17.0039C101.132 16.3746 102.129 16.335 102.804 16.8857L102.935 17.0039L107.999 22.0693L113.065 17.0039Z" fill="#000000"></path><path fill-rule="evenodd" clip-rule="evenodd" d="M108 2C124.704 2.00034 135.569 19.4286 128.099 34.2412L110.438 69.2607C110.285 69.5632 110.209 69.7148 110.15 69.8086C109.165 71.3971 106.836 71.3969 105.85 69.8086C105.791 69.7148 105.715 69.5632 105.562 69.2607L87.9014 34.2412C80.431 19.4284 91.2955 2 108 2ZM108 8C98.8873 8 91.5 15.3873 91.5 24.5C91.5 33.6127 98.8873 41 108 41C117.112 40.9997 124.5 33.6125 124.5 24.5C124.5 15.3875 117.112 8.00026 108 8Z" fill="#000000"></path></svg>