<?xml version="1.0" standalone="no"?><!DOCTYPE svg PUBLIC "-//W3C//DTD SVG 1.1//EN" "http://www.w3.org/Graphics/SVG/1.1/DTD/svg11.dtd"><svg t="1740406894514" class="icon" viewBox="0 0 1024 1024" version="1.1" xmlns="http://www.w3.org/2000/svg" p-id="916" xmlns:xlink="http://www.w3.org/1999/xlink" width="200" height="200"><path d="M116.0192 44.6464c22.6304-11.4688 48.4352-12.9536 73.3184-12.5952 172.3904 0.2048 344.7808 0.256 517.1712-1.1264 42.5984-2.56 88.6272 14.0288 113.7664 49.8688 17.8176 21.8112 26.9824 49.92 26.8288 77.9776 0.256 90.5216 0.1024 180.992 0.0512 271.4624 3.2768 26.5728-33.28 35.072-51.4048 23.1936-10.3424-5.376-12.1856-17.8688-12.032-28.3648-0.1536-88.9856 0.512-177.9712-0.256-266.9056 0.3072-32.256-28.3648-62.8736-61.2352-61.3376-182.6816-1.7408-365.3632-1.4848-548.096-1.3312-33.0752-0.2048-66.0992 28.7232-65.0752 62.8736 0 223.744-0.1536 447.488 0.0512 671.232-0.9216 33.8944 31.3856 61.9008 64.3072 61.7472 90.5216 1.2288 181.1456-0.4096 271.6672 0.768 30.2592 3.1744 30.8736 49.7152 6.8608 62.6688-92.5696-0.0512-185.1904 0.0512-277.8112-0.0512-28.2624 0.3584-56.7296-8.3968-79.1552-25.8048-34.6112-24.6784-51.9168-68.2496-51.5072-109.8752 0.2048-220.0576-0.1024-440.064 0.1536-660.1216 0.8704-47.6672 30.0544-92.8768 72.3968-114.2784z" fill="#13227a" p-id="917"></path><path d="M213.1456 274.7904c8.5504-3.6352 18.176-3.328 27.3408-3.584 128.2048 0.9216 256.4608-0.6144 384.6656 0.512 27.2896-2.9184 44.3904 32.8704 27.6992 53.2992-7.936 13.1584-24.6272 13.7728-38.2976 13.9264-126.3104-0.2048-252.6208-0.2048-378.88 0-14.7456 0.9728-30.6688-5.4272-38.4-18.432-5.4272-16.7424-2.2528-38.3488 15.872-45.7216zM212.1728 464.4864c9.8304-6.8096 22.2208-5.2736 33.4848-5.5296 59.7504 0.4608 119.552-0.256 179.3536 0.256 25.0368-0.512 43.264 28.2624 33.024 50.944-6.0928 12.288-18.5344 22.5792-32.9216 21.4016-66.5088 0-133.0688 0.5632-199.5776-0.3072-32.6656-1.536-42.1376-52.2752-13.3632-66.7648zM702.6688 482.7136c65.2288-13.2608 134.656 1.3824 190.464 37.12 27.8016 17.8176 50.1248 42.5984 70.144 68.5568 18.9952 24.8832 27.1872 55.5008 37.7344 84.4288 17.3568 76.0832 0.2048 160.9728-50.432 221.1328-64.2048 82.7904-183.552 116.224-281.7536 80.3328-43.3152-14.7456-83.456-41.0112-111.872-77.1584-32-33.1776-47.0016-78.592-57.0368-122.6752-11.5712-57.2928 3.5328-116.6336 29.952-167.68 37.0176-63.232 100.4544-110.2848 172.8-124.0576m-3.4304 58.7776c-67.9424 18.9952-123.2896 76.032-139.9296 144.5888-7.3216 34.7648-5.888 70.7072 2.0992 105.216 12.544 30.8736 27.3408 62.0032 53.0944 84.224 69.2736 72.0384 195.0208 74.9568 268.3392 7.2704 42.7008-35.84 65.0752-90.368 69.1712-145.1008-0.768-63.1296-29.44-127.0272-81.7664-163.9424-47.7696-37.2736-112.9984-47.3088-171.008-32.256z" fill="#13227a" p-id="918"></path><path d="M776.8576 582.3488c11.1616-5.0688 25.6-5.0688 34.7136 4.1472 25.1392 24.1664 49.2032 49.5104 73.5232 74.5472 15.2576 14.0288 8.1408 44.9536-14.2848 45.9264-73.4208 1.536-146.944 0-220.4672 0.7168-10.6496-0.3072-22.3744 1.0752-31.7952-5.0688-17.3056-11.3152-11.52-45.7728 10.9568-45.7216 58.2656-1.3312 116.6336-0.512 174.9504-0.3072-11.7248-12.8512-25.7024-23.6544-35.8912-37.7856-8.7552-12.1344-1.4336-27.5456 8.2944-36.4544zM227.1744 652.8512c65.7408-0.4608 131.4816-0.1536 197.1712-0.1536 20.6336-1.8944 38.2976 18.432 36.0448 38.5024-0.3072 18.1248-16.2304 35.072-34.816 34.304-63.3856 0.6144-126.7712 0-190.1568 0.256-12.032 0.768-24.4736-3.0208-31.9488-12.9536-18.7392-19.8656-5.376-60.2624 23.7056-59.9552zM612.352 771.072c6.9632-10.752 21.248-11.2128 32.7168-11.264 74.5472 0.3584 149.0944-0.4096 223.6416 0.3584 22.6304-1.6896 33.6384 29.696 17.5616 44.1856-6.144 8.2944-17.2544 6.912-26.3168 7.4752-53.8624 0-107.7248-0.2048-161.5872 0.1024 11.008 11.264 23.1936 21.4528 33.2288 33.6384 9.4208 11.3152 7.8336 31.6416-5.632 39.1168-10.7008 8.0384-26.3168 5.7344-34.8672-4.3008-24.32-23.5008-48.128-47.5648-72.2432-71.2704-10.2912-9.3184-15.0528-26.0096-6.5024-38.0416z" fill="#13227a" p-id="919"></path></svg>