<svg width="100" height="100" viewBox="0 0 100 100" fill="none" xmlns="http://www.w3.org/2000/svg">
<rect width="100" height="100" fill="#202124"/>
<path d="M25 35L37 70H45L57 35H48L41 58L34 35H25Z" fill="white"/>
<path d="M68 53H82C82 45 78 42 74 42C67 42 63 47 63 53C63 59 67 64 74 64C78 64 81 62 82 59H75C75 60 74 60 73 60C71 60 70 58 70 56H83C83 55 83 55 83 54C83 46 79 39 74 39C65 39 59 46 59 53C59 61 65 67 74 67C81 67 86 63 87 56H87V53H68ZM74 42C77 42 79 44 79 50H68C68 45 70 42 74 42Z" fill="white"/>
<path d="M85 53C85 61 90 67 96 67C102 67 107 61 107 53C107 45 102 39 96 39C90 39 85 45 85 53ZM103 53C103 59 100 63 96 63C92 63 89 59 89 53C89 47 92 43 96 43C100 43 103 47 103 53Z" fill="white"/>
</svg>