<svg xmlns="http://www.w3.org/2000/svg" width="1080" height="1527" viewBox="0 0 1080 1527">
  <defs>
    <linearGradient id="bg" x1="0" y1="0" x2="0" y2="1">
      <stop offset="0%" stop-color="#fbfaf5"/>
      <stop offset="100%" stop-color="#f2efe6"/>
    </linearGradient>
    <linearGradient id="armor" x1="0" y1="0" x2="1" y2="1">
      <stop offset="0%" stop-color="#b91c1c"/>
      <stop offset="100%" stop-color="#f59e0b"/>
    </linearGradient>
  </defs>
  <rect width="1080" height="1527" fill="url(#bg)"/>
  <rect x="500" y="220" width="230" height="390" rx="16" fill="#1f2937"/>
  <rect x="520" y="245" width="190" height="345" rx="10" fill="#0f172a"/>
  <rect x="744" y="240" width="270" height="430" rx="18" fill="#374151"/>
  <rect x="764" y="266" width="230" height="378" rx="10" fill="#e5e7eb"/>
  <rect x="792" y="310" width="176" height="44" rx="8" fill="#c7d2fe"/>
  <rect x="792" y="384" width="164" height="50" rx="8" fill="#bbf7d0"/>
  <rect x="792" y="462" width="184" height="50" rx="8" fill="#e9d5ff"/>
  <rect x="792" y="540" width="152" height="50" rx="8" fill="#fde68a"/>
  <rect x="188" y="950" width="650" height="46" rx="12" fill="#111827" opacity="0.14"/>
  <rect x="150" y="620" width="760" height="380" rx="30" fill="#f8fafc"/>
  <ellipse cx="345" cy="525" rx="108" ry="118" fill="#f5d0b5"/>
  <circle cx="315" cy="500" r="14" fill="#111827"/>
  <circle cx="388" cy="503" r="14" fill="#111827"/>
  <path d="M302 565 Q347 590 394 562" fill="none" stroke="#7c2d12" stroke-width="8" stroke-linecap="round"/>
  <path d="M232 458 Q345 292 465 420 L446 480 Q348 396 257 514 Z" fill="#2f241f"/>
  <path d="M270 355 L350 300 L437 360 L446 409 Q352 358 273 424 Z" fill="#d4a62b" opacity="0.82"/>
  <path d="M120 675 Q208 572 352 604 L422 744 Q336 792 220 792 L142 732 Z" fill="url(#armor)"/>
  <path d="M403 642 Q520 588 633 640 L658 784 Q548 836 438 810 Z" fill="url(#armor)"/>
  <path d="M208 790 Q322 820 414 912 L394 1260 L224 1260 L171 932 Z" fill="#c2410c"/>
  <path d="M430 790 Q558 784 648 866 L660 1230 L465 1244 L410 920 Z" fill="#dc2626"/>
  <rect x="560" y="958" width="246" height="38" rx="10" fill="#111827"/>
  <rect x="690" y="958" width="80" height="220" rx="18" fill="#111827"/>
  <ellipse cx="835" cy="1310" rx="78" ry="46" fill="#111827"/>
  <rect x="891" y="1190" width="112" height="96" rx="10" fill="#fff7ed" stroke="#d6d3d1"/>
  <path d="M1001 1208 q34 8 24 36" fill="none" stroke="#9ca3af" stroke-width="8" stroke-linecap="round"/>
  <text x="120" y="1420" font-size="56" font-family="PingFang SC, Hiragino Sans GB, Microsoft YaHei, sans-serif" fill="#7c2d12">像打仗一样排查 H5 报错，最后把手机直发开发日志功能磨出来。</text>
</svg>
